# xmcd
#
# Track frame offsets:
#	150
#	16852
#	35427
#	52231
#	72696
#
# Disc length: 1224 seconds
# Revision: 0
# Processed by: cddbd v1.5.2PL0 Copyright (c) Steve Scherf et al.
# Submitted via: dBpowerAMP V12.0
#
DISCID=4404c605
DTITLE=Lucy Angel - Lucy Angel EP
DYEAR=2010
DGENRE=Country
TTITLE0=Serious
TTITLE1=I'll Be Your Whiskey
TTITLE2=Only Woman Left
TTITLE3=Color Love Blue
TTITLE4=I'd Be Lyin'
EXTD=
EXTT0=
EXTT1=
EXTT2=
EXTT3=
EXTT4=
PLAYORDER=
